<svg xmlns="http://www.w3.org/2000/svg" xmlns:xlink="http://www.w3.org/1999/xlink" width="1573" height="494" viewBox="0 0 1573 494">
  <defs>
    <clipPath id="clip-Logo">
      <rect width="1573" height="494"/>
    </clipPath>
  </defs>
  <g id="Logo" clip-path="url(#clip-Logo)">
    <g id="Group_23" data-name="Group 23">
      <g id="Group_2" data-name="Group 2" transform="translate(-250 -275.409)">
        <path id="Path_1" data-name="Path 1" d="M3156.245,929.711V623.281H3317.56" transform="translate(-2647.656 -238.041)" fill="none" stroke="#bf0000" stroke-width="45"/>
        <path id="Path_2" data-name="Path 2" d="M3012.928,953.706l120.358-165.441-120.358-163.28h-60.072l125.552,163.28L2952.856,953.706Z" transform="translate(-2627.139 -262.036)" fill="#bf0000" stroke="#bf0000" stroke-linejoin="bevel" stroke-width="1"/>
        <path id="Path_3" data-name="Path 3" d="M3175,734.45h105.911" transform="translate(-2647.95 -207.432)" fill="none" stroke="#bf0000" stroke-linejoin="bevel" stroke-width="45"/>
        <path id="Path_10" data-name="Path 10" d="M0,0" transform="translate(272.5 361.909)" fill="none" stroke="#707070" stroke-width="1"/>
      </g>
      <g id="Group_4" data-name="Group 4" transform="translate(40 -304)">
        <text id="Karing_Fr" data-name="Karing
Fr" transform="translate(415 523)" fill="#2c2c2c" font-size="188" font-family="Raleway-ExtraBold, Raleway" font-weight="800"><tspan x="0" y="0">KARING</tspan><tspan x="0" y="198">FR</tspan></text>
        <g id="Group_5" data-name="Group 5" transform="translate(54 -35.576)">
          <path id="Exclusion_3" data-name="Exclusion 3" d="M-2663,241.576a65.586,65.586,0,0,1-25.69-5.187A66.018,66.018,0,0,1-2699.9,230.3a66.478,66.478,0,0,1-9.768-8.059,66.458,66.458,0,0,1-8.059-9.768,65.98,65.98,0,0,1-6.085-11.211,65.583,65.583,0,0,1-5.187-25.69,65.584,65.584,0,0,1,5.187-25.69,65.982,65.982,0,0,1,6.085-11.211,66.459,66.459,0,0,1,8.059-9.768,66.489,66.489,0,0,1,9.768-8.059,66.017,66.017,0,0,1,11.211-6.085,65.585,65.585,0,0,1,25.69-5.187,65.588,65.588,0,0,1,25.69,5.187,66,66,0,0,1,11.211,6.085,66.461,66.461,0,0,1,9.768,8.059,66.46,66.46,0,0,1,8.059,9.768,66.013,66.013,0,0,1,6.085,11.211,65.592,65.592,0,0,1,5.187,25.69,65.592,65.592,0,0,1-5.187,25.69,66.011,66.011,0,0,1-6.085,11.211,66.458,66.458,0,0,1-8.059,9.768,66.464,66.464,0,0,1-9.768,8.059,66,66,0,0,1-11.211,6.085A65.589,65.589,0,0,1-2663,241.576Zm-16.952-92.007a16.354,16.354,0,0,0-11.81,5.042,17.321,17.321,0,0,0-3.571,5.421,17.454,17.454,0,0,0-1.349,6.571,34.726,34.726,0,0,0,2.567,13.438,45.487,45.487,0,0,0,7.107,11.671,77.273,77.273,0,0,0,10.32,10.219c3.429,2.867,7.421,5.838,12.2,9.085a2.806,2.806,0,0,0,1.584.487,2.805,2.805,0,0,0,1.583-.487c4.783-3.247,8.774-6.218,12.2-9.085a77.286,77.286,0,0,0,10.319-10.219,45.49,45.49,0,0,0,7.108-11.671,34.724,34.724,0,0,0,2.569-13.438,17.454,17.454,0,0,0-1.349-6.571,17.321,17.321,0,0,0-3.571-5.421,16.353,16.353,0,0,0-11.81-5.042,16.74,16.74,0,0,0-7.483,1.76,20.511,20.511,0,0,0-5.327,3.871,24.515,24.515,0,0,0-4.243,5.63,24.046,24.046,0,0,0-4.243-5.63,20.5,20.5,0,0,0-5.326-3.871A16.737,16.737,0,0,0-2679.953,149.569Z" transform="translate(3335 516)" fill="#2c2c2c"/>
        </g>
      </g>
      <text id="ntiers" transform="translate(844 417)" fill="#2c2c2c" font-size="188" font-family="Raleway-ExtraBold, Raleway" font-weight="800"><tspan x="0" y="0">NTIERS</tspan></text>
    </g>
  </g>
</svg>
