<svg xmlns="http://www.w3.org/2000/svg" xmlns:xlink="http://www.w3.org/1999/xlink" width="1573" height="494" viewBox="0 0 1573 494">
  <defs>
    <clipPath id="clip-Logo_2">
      <rect width="1573" height="494"/>
    </clipPath>
  </defs>
  <g id="Logo_2" data-name="Logo – 2" clip-path="url(#clip-Logo_2)">
    <g id="Group_23" data-name="Group 23">
      <g id="Group_2" data-name="Group 2" transform="translate(-250 -275.409)">
        <path id="Path_1" data-name="Path 1" d="M3156.245,929.711V623.281H3317.56" transform="translate(-2647.656 -238.041)" fill="none" stroke="#fff" stroke-width="45"/>
        <path id="Path_2" data-name="Path 2" d="M3012.928,953.706l120.358-165.441-120.358-163.28h-60.072l125.552,163.28L2952.856,953.706Z" transform="translate(-2627.139 -262.036)" fill="#fff"/>
        <path id="Path_3" data-name="Path 3" d="M3175,734.45h105.911" transform="translate(-2647.95 -207.432)" fill="none" stroke="#fff" stroke-linejoin="bevel" stroke-width="45"/>
        <path id="Path_10" data-name="Path 10" d="M0,0" transform="translate(272.5 361.909)" fill="none" stroke="#707070" stroke-width="1"/>
      </g>
      <g id="Group_4" data-name="Group 4" transform="translate(40 -304)">
        <text id="Karing_Fr" data-name="Karing
Fr" transform="translate(415 523)" fill="#fff" font-size="188" font-family="Raleway-ExtraBold, Raleway" font-weight="800"><tspan x="0" y="0">KARING</tspan><tspan x="0" y="198">FR</tspan></text>
        <g id="Group_5" data-name="Group 5" transform="translate(54 -35.576)">
          <path id="Exclusion_2" data-name="Exclusion 2" d="M-4306,241.577a65.586,65.586,0,0,1-25.69-5.187A66.018,66.018,0,0,1-4342.9,230.3a66.462,66.462,0,0,1-9.768-8.059,66.53,66.53,0,0,1-8.06-9.768,66.074,66.074,0,0,1-6.085-11.211,65.592,65.592,0,0,1-5.187-25.69,65.593,65.593,0,0,1,5.187-25.69,66.072,66.072,0,0,1,6.085-11.211,66.531,66.531,0,0,1,8.06-9.768,66.462,66.462,0,0,1,9.768-8.059,66.017,66.017,0,0,1,11.211-6.085,65.586,65.586,0,0,1,25.69-5.187,65.583,65.583,0,0,1,25.689,5.187,66.015,66.015,0,0,1,11.211,6.085,66.477,66.477,0,0,1,9.768,8.059,66.531,66.531,0,0,1,8.06,9.768,66.028,66.028,0,0,1,6.085,11.211,65.593,65.593,0,0,1,5.187,25.69,65.593,65.593,0,0,1-5.187,25.69,66.027,66.027,0,0,1-6.085,11.211,66.525,66.525,0,0,1-8.06,9.768,66.483,66.483,0,0,1-9.768,8.059,66.015,66.015,0,0,1-11.211,6.085A65.583,65.583,0,0,1-4306,241.577Zm-16.954-92.007a16.353,16.353,0,0,0-11.81,5.042,17.317,17.317,0,0,0-3.57,5.421,17.443,17.443,0,0,0-1.348,6.571,34.73,34.73,0,0,0,2.567,13.438,45.459,45.459,0,0,0,7.107,11.671,77.218,77.218,0,0,0,10.319,10.219c3.429,2.866,7.421,5.838,12.2,9.085a2.8,2.8,0,0,0,1.583.488,2.8,2.8,0,0,0,1.583-.488c4.783-3.247,8.774-6.218,12.2-9.085a77.3,77.3,0,0,0,10.319-10.219,45.49,45.49,0,0,0,7.108-11.671,34.725,34.725,0,0,0,2.568-13.438,17.443,17.443,0,0,0-1.348-6.571,17.317,17.317,0,0,0-3.57-5.421,16.353,16.353,0,0,0-11.81-5.042,16.741,16.741,0,0,0-7.484,1.76,20.521,20.521,0,0,0-5.327,3.871,24.507,24.507,0,0,0-4.243,5.63,24.042,24.042,0,0,0-4.243-5.63,20.521,20.521,0,0,0-5.327-3.871A16.741,16.741,0,0,0-4322.953,149.57Z" transform="translate(4978 516)" fill="#fff"/>
        </g>
      </g>
      <text id="ntiers" transform="translate(844 417)" fill="#fff" font-size="188" font-family="Raleway-ExtraBold, Raleway" font-weight="800"><tspan x="0" y="0">NTIERS</tspan></text>
    </g>
  </g>
</svg>
